<svg width="590" height="215" xmlns="http://www.w3.org/2000/svg" xmlns:xlink="http://www.w3.org/1999/xlink"><defs><linearGradient x1="0%" y1="42.244%" x2="100%" y2="57.756%" id="a"><stop stop-color="#8845FF" offset="0%"/><stop stop-color="#3D68FF" offset="100%"/></linearGradient><linearGradient x1="50%" y1="0%" x2="50%" y2="100%" id="d"><stop stop-color="#12A3FF" offset="0%"/><stop stop-color="#3D68FF" offset="100%"/></linearGradient><linearGradient x1="34.088%" y1="0%" x2="65.912%" y2="100%" id="e"><stop stop-color="#8845FF" offset="0%"/><stop stop-color="#3D68FF" offset="100%"/></linearGradient><linearGradient x1="50%" y1="0%" x2="50%" y2="73.049%" id="f"><stop stop-color="#12A3FF" offset="0%"/><stop stop-color="#3D68FF" offset="100%"/></linearGradient><linearGradient x1="50%" y1="28.362%" x2="50%" y2="100%" id="g"><stop stop-color="#12A3FF" offset="0%"/><stop stop-color="#3D68FF" offset="100%"/></linearGradient><path d="M247.989 0c9.967 0 13.665 2.023 19.641 9.238l26.186 32.353c11.097 13 11.097 22.822 0 35.807l-26.186 32.357c-5.976 7.219-9.674 9.245-19.641 9.245H54.15c-9.665 0-13.435-1.905-19.105-8.603l-.537-.642L8.323 77.398C-2.573 64.65-2.77 54.948 7.73 42.298l.594-.707L34.508 9.238C40.304 2.24 43.957.128 53.261.006L54.15 0h193.839z" id="b"/></defs><g fill="none" fill-rule="evenodd"><path d="M247.989 0c9.967 0 13.665 2.023 19.641 9.238l26.186 32.353c11.097 13 11.097 22.822 0 35.807l-26.186 32.357c-5.976 7.219-9.674 9.245-19.641 9.245H54.15c-9.665 0-13.435-1.905-19.105-8.603l-.537-.642L8.323 77.398C-2.573 64.65-2.77 54.948 7.73 42.298l.594-.707L34.508 9.238C40.304 2.24 43.957.128 53.261.006L54.15 0h193.839z" fill="url(#a)" fill-rule="nonzero" transform="translate(287 51)"/><g transform="translate(287 51)"><mask id="c" fill="#fff"><use xlink:href="#b"/></mask><path d="M111.168 82.737c10.497 0 15.745-4.467 15.745-13.4 0-5.003-2.099-8.263-6.297-9.782 1.965-.938 3.394-2.144 4.287-3.618.894-1.474 1.34-3.372 1.34-5.695 0-8.263-5.024-12.395-15.075-12.395a48.28 48.28 0 00-8.308.737c-1.206.223-1.998.547-2.378.971-.38.425-.57 1.218-.57 2.379v1.072c0 1.206.201 1.988.603 2.345.403.357 1.162.402 2.278.134 3.038-.715 5.83-1.072 8.375-1.072 2.993 0 5.07.458 6.231 1.373 1.162.916 1.742 2.535 1.742 4.858 0 2.189-.614 3.74-1.842 4.657-1.228.915-3.339 1.373-6.332 1.373h-.468c-1.028 0-1.709.179-2.044.536-.335.357-.502 1.027-.502 2.01v.804c0 .983.167 1.653.502 2.01.335.357 1.016.536 2.044.536h.469c3.17 0 5.438.547 6.8 1.642 1.362 1.094 2.043 2.802 2.043 5.125 0 2.457-.636 4.199-1.909 5.226-1.273 1.027-3.517 1.541-6.734 1.541-3.126 0-6.186-.424-9.178-1.273-1.072-.313-1.82-.28-2.245.1-.424.38-.636 1.15-.636 2.312v1.072c0 1.117.19 1.887.569 2.311.38.425 1.15.793 2.312 1.106 2.59.67 5.65 1.005 9.178 1.005zm37.788-.067c5.137 0 8.945-1.172 11.424-3.517 2.479-2.346 3.719-5.997 3.719-10.955 0-4.6-1.15-7.928-3.451-9.983-2.3-2.055-5.974-3.082-11.022-3.082-3.439 0-6.454.469-9.044 1.407v-2.01c0-3.975.692-6.655 2.077-8.04 1.384-1.385 4.042-2.077 7.972-2.077 2.993 0 5.785.424 8.375 1.273 1.921.58 2.881-.201 2.881-2.345v-.938c0-1.787-.96-2.948-2.88-3.484-2.19-.715-4.914-1.072-8.174-1.072-6.165 0-10.598 1.318-13.3 3.953s-4.053 6.968-4.053 12.998v10.854c0 5.762 1.25 10.039 3.752 12.83 2.5 2.792 6.41 4.188 11.725 4.188zm.47-6.566c-3.663 0-6.053-.871-7.17-2.613-1.116-1.787-1.674-4.6-1.674-8.442v-2.211c2.412-1.027 5.18-1.541 8.308-1.541 3.082 0 5.214.525 6.398 1.575 1.184 1.05 1.775 2.959 1.775 5.728 0 2.77-.558 4.712-1.674 5.829-1.117 1.117-3.105 1.675-5.964 1.675zm36.917 6.7c5.672 0 9.793-1.396 12.361-4.188 2.568-2.791 3.852-7.135 3.852-13.031V55.066c0-5.896-1.284-10.24-3.852-13.032-2.568-2.791-6.689-4.187-12.362-4.187-5.672 0-9.782 1.396-12.328 4.188-2.546 2.791-3.819 7.135-3.819 13.031v10.519c0 5.896 1.274 10.24 3.82 13.032 2.546 2.791 6.655 4.187 12.328 4.187zm0-6.633c-3.306 0-5.64-.815-7.002-2.446-1.362-1.63-2.043-4.343-2.043-8.14V55.066c0-3.797.68-6.51 2.043-8.14 1.362-1.63 3.696-2.446 7.001-2.446 3.35 0 5.695.793 7.035 2.379 1.34 1.585 2.01 4.321 2.01 8.207v10.519c0 3.886-.67 6.622-2.01 8.208-1.34 1.585-3.685 2.378-7.035 2.378z" fill="#FFF" fill-rule="nonzero" mask="url(#c)"/></g><g fill-rule="nonzero"><path d="M71.877 67.376l32.887 40.075c5.969 7.633 5.684 9.047-4.264 9.047h-3.411c-9.948 0-13.643-1.98-19.613-9.047L59.36 85.51l4.32-5.23c3.845-4.424 6.577-8.697 8.197-12.905zM101.085.016c9.372.057 9.528 1.564 3.679 9.045L71.877 49.137c-1.62-4.21-4.352-8.482-8.196-12.907l-4.321-5.232L77.476 9.061C83.265 2.207 86.915.138 96.202.019l.887-.006 3.996.002z" fill="url(#d)" transform="translate(176.376 51.119)"/><path d="M58.398 116.498c9.948 0 10.233-1.414 4.264-9.047L28.553 65.889c-2.558-3.11-3.98-5.654-3.98-7.633 0-2.262 1.422-4.807 3.98-7.634L62.662 9.061c5.97-7.634 5.684-9.048-4.264-9.048h-3.41c-9.949 0-13.644 1.98-19.613 9.048L9.225 40.726c-11.086 12.723-11.086 22.336 0 35.06l26.15 31.665c5.969 7.068 9.664 9.047 19.612 9.047h3.411z" fill="url(#e)" transform="matrix(-1 0 0 1 243.909 51.119)"/><path d="M.618 203.862c0 8.442 2.122 10.552 10.608 10.552h2.829c8.486 0 10.608-2.11 10.608-10.552v-49.005c6.364 10.082 17.915 15.24 34.652 15.24 32.766 0 49.032-17.116 49.032-51.115v-20.4c0-34-17.444-49.944-53.983-49.944C20.42 48.638.618 65.052.618 98.582v105.28zm83.449-84.412c0 19.696-6.6 27.903-29.467 27.903-23.337 0-29.937-8.44-29.937-27.903V99.285c0-19.696 7.072-28.137 29.937-28.137 23.338 0 29.467 8.441 29.467 28.137v20.165z" fill="url(#f)"/><path d="M131.021 156.784c0 8.44 2.122 10.551 10.608 10.551h3.065c8.486 0 10.608-2.11 10.608-10.551V61.586c0-8.442-2.122-10.552-10.608-10.552h-3.065c-8.486 0-10.608 2.11-10.608 10.552v95.198zm1.65-131.073c5.894 5.627 15.323 5.627 20.98 0 5.894-5.863 5.894-15.241 0-20.869-5.657-5.862-15.086-5.862-20.98 0-5.893 5.628-5.893 15.006 0 20.869z" fill="url(#g)"/></g></g></svg>